<svg width="142" height="32" viewBox="0 0 142 32" fill="none" xmlns="http://www.w3.org/2000/svg">
<path d="M0.153373 1.344H7.70537L12.9214 16.128H12.9854L18.2334 1.344H25.7534V24H20.7614V6.624H20.6974L14.7454 24H10.9374L5.20937 6.624H5.14537V24H0.153373V1.344ZM38.0841 26.528C37.7641 27.36 37.4548 28.096 37.1561 28.736C36.8575 29.376 36.4735 29.9093 36.0041 30.336C35.5561 30.784 34.9801 31.1147 34.2761 31.328C33.5721 31.5627 32.6441 31.68 31.4921 31.68C30.2548 31.68 29.0601 31.488 27.9081 31.104L28.5481 27.168C29.2735 27.488 30.0201 27.648 30.7881 27.648C31.3215 27.648 31.7588 27.584 32.1001 27.456C32.4415 27.3493 32.7188 27.1787 32.9321 26.944C33.1668 26.7307 33.3588 26.464 33.5081 26.144C33.6575 25.824 33.8175 25.4507 33.9881 25.024L34.3401 24.128L27.5241 8.448H32.7081L36.7081 18.72H36.7721L40.1961 8.448H45.1241L38.0841 26.528ZM55.8941 1.344H71.0941V5.952H60.8861V10.56H70.3261V15.168H60.8861V24H55.8941V1.344ZM83.1829 22.048H83.1189C82.5855 22.88 81.8709 23.4773 80.9749 23.84C80.1002 24.2027 79.1722 24.384 78.1909 24.384C77.4655 24.384 76.7615 24.2773 76.0789 24.064C75.4175 23.872 74.8309 23.5733 74.3189 23.168C73.8069 22.7627 73.4015 22.2613 73.1029 21.664C72.8042 21.0667 72.6549 20.3733 72.6549 19.584C72.6549 18.688 72.8149 17.9307 73.1349 17.312C73.4762 16.6933 73.9242 16.1813 74.4789 15.776C75.0549 15.3707 75.7055 15.0613 76.4309 14.848C77.1562 14.6133 77.9029 14.4427 78.6709 14.336C79.4602 14.2293 80.2389 14.1653 81.0069 14.144C81.7962 14.1227 82.5215 14.112 83.1829 14.112C83.1829 13.2587 82.8735 12.5867 82.2549 12.096C81.6575 11.584 80.9429 11.328 80.1109 11.328C79.3215 11.328 78.5962 11.4987 77.9349 11.84C77.2949 12.16 76.7189 12.608 76.2069 13.184L73.6469 10.56C74.5429 9.728 75.5882 9.10933 76.7829 8.704C77.9775 8.27733 79.2149 8.064 80.4949 8.064C81.9029 8.064 83.0549 8.24533 83.9509 8.608C84.8682 8.94933 85.5935 9.46133 86.1269 10.144C86.6815 10.8267 87.0655 11.6693 87.2789 12.672C87.4922 13.6533 87.5989 14.7947 87.5989 16.096V24H83.1829V22.048ZM81.9989 17.184C81.6362 17.184 81.1775 17.2053 80.6229 17.248C80.0895 17.2693 79.5669 17.3547 79.0549 17.504C78.5642 17.6533 78.1375 17.8773 77.7749 18.176C77.4335 18.4747 77.2629 18.8907 77.2629 19.424C77.2629 20 77.5082 20.4267 77.9989 20.704C78.4895 20.9813 79.0015 21.12 79.5349 21.12C80.0042 21.12 80.4522 21.056 80.8789 20.928C81.3269 20.8 81.7215 20.6187 82.0629 20.384C82.4042 20.1493 82.6709 19.8507 82.8629 19.488C83.0762 19.1253 83.1829 18.6987 83.1829 18.208V17.184H81.9989ZM88.3384 8.448H93.5224L97.4584 19.008H97.5224L101.17 8.448H106.002L99.8584 24H94.7704L88.3384 8.448ZM121.832 21.312C121.064 22.2933 120.093 23.0507 118.92 23.584C117.746 24.1173 116.53 24.384 115.272 24.384C114.077 24.384 112.946 24.192 111.88 23.808C110.834 23.424 109.917 22.88 109.128 22.176C108.36 21.4507 107.752 20.5867 107.304 19.584C106.856 18.5813 106.632 17.4613 106.632 16.224C106.632 14.9867 106.856 13.8667 107.304 12.864C107.752 11.8613 108.36 11.008 109.128 10.304C109.917 9.57867 110.834 9.024 111.88 8.64C112.946 8.256 114.077 8.064 115.272 8.064C116.381 8.064 117.384 8.256 118.28 8.64C119.197 9.024 119.965 9.57867 120.584 10.304C121.224 11.008 121.714 11.8613 122.056 12.864C122.397 13.8667 122.568 14.9867 122.568 16.224V17.728H111.432C111.624 18.6453 112.04 19.3813 112.68 19.936C113.32 20.4693 114.109 20.736 115.048 20.736C115.837 20.736 116.498 20.5653 117.032 20.224C117.586 19.8613 118.066 19.4027 118.472 18.848L121.832 21.312ZM117.768 14.464C117.789 13.6533 117.522 12.96 116.968 12.384C116.413 11.808 115.698 11.52 114.824 11.52C114.29 11.52 113.821 11.6053 113.416 11.776C113.01 11.9467 112.658 12.1707 112.36 12.448C112.082 12.704 111.858 13.0133 111.688 13.376C111.538 13.7173 111.453 14.08 111.432 14.464H117.768ZM137.487 15.776L136.655 4.832L136.495 0.0639992H141.775L141.615 4.832L140.783 15.776H137.487ZM139.151 24.32C137.487 24.32 136.303 23.136 136.303 21.472C136.303 19.808 137.519 18.656 139.151 18.656C140.751 18.656 141.967 19.808 141.967 21.472C141.967 23.136 140.751 24.32 139.151 24.32Z" fill="white"/>
</svg>
