<svg width="21" height="20" viewBox="0 0 21 20" fill="none" xmlns="http://www.w3.org/2000/svg">
<path d="M10.5 20C9.11667 20 7.81667 19.7375 6.6 19.2125C5.38333 18.6875 4.325 17.975 3.425 17.075C2.525 16.175 1.8125 15.1167 1.2875 13.9C0.7625 12.6833 0.5 11.3833 0.5 10C0.5 8.61667 0.7625 7.31667 1.2875 6.1C1.8125 4.88333 2.525 3.825 3.425 2.925C4.325 2.025 5.38333 1.3125 6.6 0.7875C7.81667 0.2625 9.11667 0 10.5 0C11.8833 0 13.1833 0.2625 14.4 0.7875C15.6167 1.3125 16.675 2.025 17.575 2.925C18.475 3.825 19.1875 4.88333 19.7125 6.1C20.2375 7.31667 20.5 8.61667 20.5 10C20.5 11.3833 20.2375 12.6833 19.7125 13.9C19.1875 15.1167 18.475 16.175 17.575 17.075C16.675 17.975 15.6167 18.6875 14.4 19.2125C13.1833 19.7375 11.8833 20 10.5 20ZM10.5 15.5C11.25 14.75 11.9167 13.975 12.5 13.175C13 12.4917 13.4583 11.7417 13.875 10.925C14.2917 10.1083 14.5 9.3 14.5 8.5C14.5 7.4 14.1083 6.45833 13.325 5.675C12.5417 4.89167 11.6 4.5 10.5 4.5C9.4 4.5 8.45833 4.89167 7.675 5.675C6.89167 6.45833 6.5 7.4 6.5 8.5C6.5 9.3 6.70833 10.1083 7.125 10.925C7.54167 11.7417 8 12.4917 8.5 13.175C9.08333 13.975 9.75 14.75 10.5 15.5ZM10.5 10C10.0833 10 9.72917 9.85417 9.4375 9.5625C9.14583 9.27083 9 8.91667 9 8.5C9 8.08333 9.14583 7.72917 9.4375 7.4375C9.72917 7.14583 10.0833 7 10.5 7C10.9167 7 11.2708 7.14583 11.5625 7.4375C11.8542 7.72917 12 8.08333 12 8.5C12 8.91667 11.8542 9.27083 11.5625 9.5625C11.2708 9.85417 10.9167 10 10.5 10Z" fill="url(#paint0_linear_1803_43581)"/>
<defs>
<linearGradient id="paint0_linear_1803_43581" x1="10.5" y1="0" x2="10.5" y2="20" gradientUnits="userSpaceOnUse">
<stop/>
</linearGradient>
</defs>
</svg>
